<svg width="606" height="411" viewBox="0 0 606 411" fill="none" xmlns="http://www.w3.org/2000/svg">
<g clip-path="url(#clip0)">
<path opacity="0.1" d="M352.092 67.7631C313.243 66.3963 276.241 53.687 240.908 39.7822C205.576 25.8774 170.578 10.472 132.659 3.10408C108.27 -1.63485 80.3787 -2.30534 60.7272 10.9455C41.8167 23.6968 35.7062 45.7081 32.421 66.1319C29.9493 81.498 28.4962 97.6703 35.2686 112.056C39.9704 122.043 48.3191 130.438 54.0923 140.004C74.181 173.291 59.9821 214.337 38.2119 246.839C27.9999 262.085 16.1549 276.629 8.27478 292.859C0.394606 309.088 -3.25079 327.685 3.64365 344.241C10.4773 360.65 26.7626 372.976 44.4033 381.645C80.2324 399.253 122.453 404.292 163.624 407.146C254.76 413.464 346.383 410.729 437.762 407.989C471.579 406.975 505.545 405.948 538.812 400.649C557.286 397.706 576.36 393.036 589.772 381.761C606.798 367.448 611.018 343.211 599.609 325.264C580.472 295.159 527.56 287.682 514.184 255.374C506.822 237.591 514.383 217.782 525.082 201.29C548.036 165.909 586.508 134.869 588.535 94.4288C589.927 66.6535 571.432 38.8373 542.835 25.6957C512.86 11.9207 471.295 13.6534 449.181 36.4557C426.411 59.9357 386.394 68.97 352.092 67.7631Z" fill="#2D70D7"/>
<path d="M215.193 270.672C215.193 270.672 226.726 267.026 235.113 270.672C243.501 274.317 257.131 271.887 261.324 269.942C265.518 267.998 284.39 270.672 286.487 272.616C288.584 274.561 296.971 276.991 302.738 275.047C308.504 273.102 320.037 268.727 324.755 271.401" fill="#2196F3"/>
<path opacity="0.2" d="M215.193 270.672C215.193 270.672 226.726 267.026 235.113 270.672C243.501 274.317 257.131 271.887 261.324 269.942C265.518 267.998 284.39 270.672 286.487 272.616C288.584 274.561 296.971 276.991 302.738 275.047C308.504 273.102 320.037 268.727 324.755 271.401" fill="black"/>
<path d="M173.779 242.096C173.779 242.096 200.211 234.876 219.434 242.096C238.657 249.316 269.895 244.503 279.507 240.652C289.118 236.801 332.37 242.096 337.176 245.947C341.982 249.797 361.205 254.611 374.421 250.76C387.637 246.909 414.068 238.245 424.881 243.54" fill="#2196F3"/>
<path opacity="0.2" d="M173.779 242.096C173.779 242.096 200.211 234.876 219.434 242.096C238.657 249.316 269.895 244.503 279.507 240.652C289.118 236.801 332.37 242.096 337.176 245.947C341.982 249.797 361.205 254.611 374.421 250.76C387.637 246.909 414.068 238.245 424.881 243.54" fill="black"/>
<path d="M173.755 119.271C187.666 119.271 198.942 109.053 198.942 96.4489C198.942 83.8447 187.666 73.627 173.755 73.627C159.845 73.627 148.569 83.8447 148.569 96.4489C148.569 109.053 159.845 119.271 173.755 119.271Z" fill="url(#paint0_linear)"/>
<path d="M173.755 116.609C185.881 116.609 195.711 107.583 195.711 96.4489C195.711 85.3148 185.881 76.2888 173.755 76.2888C161.629 76.2888 151.799 85.3148 151.799 96.4489C151.799 107.583 161.629 116.609 173.755 116.609Z" fill="#FF9800"/>
<path d="M528.153 216.104H67.3624V224.286H528.153V216.104Z" fill="#2D70D7"/>
<path d="M295.137 188.653H291.991V221.384H295.137V188.653Z" fill="#2D70D7"/>
<path d="M121.134 98.6425H117.989V221.384H121.134V98.6425Z" fill="#2D70D7"/>
<path d="M478.129 98.6425H474.984V221.384H478.129V98.6425Z" fill="#2D70D7"/>
<path d="M476.517 99.3787C292.516 328.497 118.998 99.3787 118.998 99.3787" stroke="#2D70D7" stroke-width="2" stroke-miterlimit="10"/>
<path d="M279.164 199.637V216.104" stroke="#2D70D7" stroke-miterlimit="10"/>
<path d="M316.892 201.209V216.104" stroke="#2D70D7" stroke-miterlimit="10"/>
<path d="M241.064 190.165V216.104" stroke="#2D70D7" stroke-miterlimit="10"/>
<path d="M204.632 173.18V216.104" stroke="#2D70D7" stroke-miterlimit="10"/>
<path d="M167.299 147.513V216.104" stroke="#2D70D7" stroke-miterlimit="10"/>
<path d="M355.021 192.517V216.104" stroke="#2D70D7" stroke-miterlimit="10"/>
<path d="M393.98 174.468V215.863" stroke="#2D70D7" stroke-miterlimit="10"/>
<path d="M430.821 147.513V216.104" stroke="#2D70D7" stroke-miterlimit="10"/>
<path d="M147.56 130.257V216.104" stroke="#2D70D7" stroke-miterlimit="10"/>
<path d="M449.151 130.257V216.104" stroke="#2D70D7" stroke-miterlimit="10"/>
<path d="M186.28 161.644V215.863" stroke="#2D70D7" stroke-miterlimit="10"/>
<path d="M223.751 183.058V216.104" stroke="#2D70D7" stroke-miterlimit="10"/>
<path d="M257.026 195.165V215.863" stroke="#2D70D7" stroke-miterlimit="10"/>
<path d="M337.35 197.381V216.104" stroke="#2D70D7" stroke-miterlimit="10"/>
<path d="M373.9 185.056V216.104" stroke="#2D70D7" stroke-miterlimit="10"/>
<path d="M410.7 163.475V215.863" stroke="#2D70D7" stroke-miterlimit="10"/>
<path d="M173.255 288.481C173.255 288.481 178.001 284.835 181.452 288.481C184.903 292.127 190.512 289.696 192.238 287.752C193.963 285.807 201.729 288.481 202.592 290.426C203.454 292.37 206.906 294.801 209.278 292.856C211.651 290.912 216.397 286.537 218.338 289.21" fill="#2196F3"/>
<path opacity="0.2" d="M173.255 288.481C173.255 288.481 178.001 284.835 181.452 288.481C184.903 292.127 190.512 289.696 192.238 287.752C193.963 285.807 201.729 288.481 202.592 290.426C203.454 292.37 206.906 294.801 209.278 292.856C211.651 290.912 216.397 286.537 218.338 289.21" fill="black"/>
<path d="M89.3798 253.343C89.3798 253.343 94.1253 249.697 97.5767 253.343C101.028 256.989 106.636 254.559 108.362 252.614C110.088 250.67 117.853 253.343 118.716 255.288C119.579 257.232 123.03 259.663 125.403 257.718C127.776 255.774 132.521 251.399 134.463 254.073" fill="#2196F3"/>
<path opacity="0.2" d="M89.3798 253.343C89.3798 253.343 94.1253 249.697 97.5767 253.343C101.028 256.989 106.636 254.559 108.362 252.614C110.088 250.67 117.853 253.343 118.716 255.288C119.579 257.232 123.03 259.663 125.403 257.718C127.776 255.774 132.521 251.399 134.463 254.073" fill="black"/>
<path d="M40.103 295.22C40.103 295.22 44.8485 291.574 48.2999 295.22C51.7512 298.866 57.3596 296.435 59.0853 294.491C60.811 292.546 68.5765 295.22 69.4393 297.164C70.3021 299.109 73.7535 301.539 76.1263 299.595C78.4991 297.65 83.2446 293.275 85.186 295.949" fill="#2196F3"/>
<path opacity="0.2" d="M40.103 295.22C40.103 295.22 44.8485 291.574 48.2999 295.22C51.7512 298.866 57.3596 296.435 59.0853 294.491C60.811 292.546 68.5765 295.22 69.4393 297.164C70.3021 299.109 73.7535 301.539 76.1263 299.595C78.4991 297.65 83.2446 293.275 85.186 295.949" fill="black"/>
<path d="M420.688 259.601C420.688 259.601 425.433 255.955 428.885 259.601C432.336 263.247 437.944 260.816 439.67 258.871C441.396 256.927 449.161 259.601 450.024 261.545C450.887 263.49 454.338 265.92 456.711 263.976C459.084 262.031 463.829 257.656 465.771 260.33" fill="#2196F3"/>
<path opacity="0.2" d="M420.688 259.601C420.688 259.601 425.433 255.955 428.885 259.601C432.336 263.247 437.944 260.816 439.67 258.871C441.396 256.927 449.161 259.601 450.024 261.545C450.887 263.49 454.338 265.92 456.711 263.976C459.084 262.031 463.829 257.656 465.771 260.33" fill="black"/>
<path d="M496.7 321.694C496.7 321.694 501.445 318.048 504.897 321.694C508.348 325.34 513.957 322.909 515.682 320.964C517.408 319.02 525.173 321.694 526.036 323.638C526.899 325.583 530.35 328.013 532.723 326.069C535.096 324.124 539.842 319.749 541.783 322.423" fill="#2196F3"/>
<path opacity="0.2" d="M496.7 321.694C496.7 321.694 501.445 318.048 504.897 321.694C508.348 325.34 513.957 322.909 515.682 320.964C517.408 319.02 525.173 321.694 526.036 323.638C526.899 325.583 530.35 328.013 532.723 326.069C535.096 324.124 539.842 319.749 541.783 322.423" fill="black"/>
<path d="M118.212 325.063C118.212 325.063 134.601 321.417 146.52 325.063C158.439 328.709 177.808 326.278 183.767 324.334C189.727 322.389 216.545 325.063 219.525 327.008C222.504 328.952 234.424 331.383 242.618 329.438C250.812 327.494 267.201 323.119 273.906 325.792" fill="#2196F3"/>
<path d="M69.4594 360.317C69.4594 360.317 85.8482 356.41 97.7673 360.317C109.686 364.225 129.055 361.62 135.015 359.536C140.974 357.452 167.792 360.317 170.772 362.401C173.752 364.485 185.671 367.09 193.865 365.006C202.06 362.922 218.449 358.233 225.153 361.099" fill="#2196F3"/>
<path d="M246.646 366.94C246.646 366.94 253.544 363.294 258.56 366.94C263.577 370.586 271.729 368.155 274.237 366.21C276.745 364.266 288.032 366.94 289.286 368.884C290.54 370.829 295.557 373.259 299.006 371.315C302.454 369.37 309.352 364.995 312.174 367.669" fill="#2196F3"/>
<path d="M436.414 350.093C436.414 350.093 443.312 346.447 448.328 350.093C453.345 353.739 461.497 351.308 464.005 349.363C466.513 347.419 477.8 350.093 479.054 352.037C480.308 353.982 485.325 356.412 488.774 354.468C492.223 352.523 499.12 348.148 501.942 350.822" fill="#2196F3"/>
<path d="M312.174 321.694C312.174 321.694 319.072 318.048 324.088 321.694C329.104 325.34 337.256 322.909 339.764 320.964C342.273 319.02 353.56 321.694 354.814 323.638C356.068 325.583 361.085 328.013 364.533 326.069C367.982 324.124 374.88 319.749 377.702 322.423" fill="#2196F3"/>
<path d="M341.006 372.716C341.006 372.716 347.904 369.07 352.92 372.716C357.937 376.362 366.088 373.931 368.597 371.986C371.105 370.042 382.392 372.716 383.646 374.66C384.9 376.605 389.917 379.035 393.366 377.091C396.814 375.146 403.712 370.771 406.534 373.445" fill="#2196F3"/>
<path d="M395.001 298.589C395.001 298.589 403.719 294.943 410.06 298.589C416.401 302.235 426.705 299.804 429.875 297.86C433.046 295.915 447.313 298.589 448.898 300.534C450.483 302.478 456.824 304.909 461.183 302.964C465.542 301.02 474.261 296.645 477.828 299.318" fill="#2196F3"/>
<path opacity="0.2" d="M395.001 298.589C395.001 298.589 403.719 294.943 410.06 298.589C416.401 302.235 426.705 299.804 429.875 297.86C433.046 295.915 447.313 298.589 448.898 300.534C450.483 302.478 456.824 304.909 461.183 302.964C465.542 301.02 474.261 296.645 477.828 299.318" fill="black"/>
<path d="M376.663 207.685C376.663 207.379 376.392 207.131 376.059 207.131C375.726 207.131 375.455 207.379 375.455 207.685V213.505C375.455 213.811 375.726 214.059 376.059 214.059C376.392 214.059 376.663 213.811 376.663 213.505V207.685Z" fill="#2D70D7"/>
<path d="M392.089 207.685C392.089 207.379 391.819 207.131 391.485 207.131C391.152 207.131 390.882 207.379 390.882 207.685V213.228C390.882 213.534 391.152 213.782 391.485 213.782C391.819 213.782 392.089 213.534 392.089 213.228V207.685Z" fill="#2D70D7"/>
<path d="M392.968 206.463H374.61C373.978 206.463 373.465 206.933 373.465 207.514C373.465 208.095 373.978 208.565 374.61 208.565H392.968C393.6 208.565 394.113 208.095 394.113 207.514C394.113 206.933 393.6 206.463 392.968 206.463Z" fill="url(#paint1_linear)"/>
<path d="M392.993 208.65H374.636C374.003 208.65 373.491 209.12 373.491 209.701C373.491 210.282 374.003 210.752 374.636 210.752H392.993C393.625 210.752 394.138 210.282 394.138 209.701C394.138 209.12 393.625 208.65 392.993 208.65Z" fill="url(#paint2_linear)"/>
<path d="M393.018 210.837H374.661C374.029 210.837 373.516 211.307 373.516 211.888C373.516 212.469 374.029 212.939 374.661 212.939H393.018C393.651 212.939 394.163 212.469 394.163 211.888C394.163 211.307 393.651 210.837 393.018 210.837Z" fill="url(#paint3_linear)"/>
<path d="M392.995 206.577H374.583C374.083 206.577 373.678 206.949 373.678 207.408V207.408C373.678 207.867 374.083 208.24 374.583 208.24H392.995C393.495 208.24 393.9 207.867 393.9 207.408V207.408C393.9 206.949 393.495 206.577 392.995 206.577Z" fill="#CCCCCC"/>
<path d="M392.995 208.794H374.583C374.083 208.794 373.678 209.166 373.678 209.625C373.678 210.084 374.083 210.457 374.583 210.457H392.995C393.495 210.457 393.9 210.084 393.9 209.625C393.9 209.166 393.495 208.794 392.995 208.794Z" fill="#CCCCCC"/>
<path d="M392.995 211.011H374.583C374.083 211.011 373.678 211.383 373.678 211.842C373.678 212.302 374.083 212.674 374.583 212.674H392.995C393.495 212.674 393.9 212.302 393.9 211.842C393.9 211.383 393.495 211.011 392.995 211.011Z" fill="#CCCCCC"/>
<path d="M392.995 212.951H374.583C374.083 212.951 373.678 213.323 373.678 213.782C373.678 214.241 374.083 214.614 374.583 214.614H392.995C393.495 214.614 393.9 214.241 393.9 213.782C393.9 213.323 393.495 212.951 392.995 212.951Z" fill="#2D70D7"/>
<path d="M376.059 207.685C376.226 207.685 376.361 207.561 376.361 207.408C376.361 207.255 376.226 207.131 376.059 207.131C375.892 207.131 375.757 207.255 375.757 207.408C375.757 207.561 375.892 207.685 376.059 207.685Z" fill="#2D70D7"/>
<path d="M376.059 209.902C376.226 209.902 376.361 209.778 376.361 209.625C376.361 209.472 376.226 209.348 376.059 209.348C375.892 209.348 375.757 209.472 375.757 209.625C375.757 209.778 375.892 209.902 376.059 209.902Z" fill="#2D70D7"/>
<path d="M376.059 212.119C376.226 212.119 376.361 211.995 376.361 211.842C376.361 211.689 376.226 211.565 376.059 211.565C375.892 211.565 375.757 211.689 375.757 211.842C375.757 211.995 375.892 212.119 376.059 212.119Z" fill="#2D70D7"/>
<path d="M391.485 212.119C391.652 212.119 391.787 211.995 391.787 211.842C391.787 211.689 391.652 211.565 391.485 211.565C391.319 211.565 391.184 211.689 391.184 211.842C391.184 211.995 391.319 212.119 391.485 212.119Z" fill="#2D70D7"/>
<path d="M391.485 209.902C391.652 209.902 391.787 209.778 391.787 209.625C391.787 209.472 391.652 209.348 391.485 209.348C391.319 209.348 391.184 209.472 391.184 209.625C391.184 209.778 391.319 209.902 391.485 209.902Z" fill="#2D70D7"/>
<path d="M391.485 207.685C391.652 207.685 391.787 207.561 391.787 207.408C391.787 207.255 391.652 207.131 391.485 207.131C391.319 207.131 391.184 207.255 391.184 207.408C391.184 207.561 391.319 207.685 391.485 207.685Z" fill="#2D70D7"/>
<path d="M376.204 214.757C376.204 214.525 375.999 214.337 375.746 214.337C375.493 214.337 375.288 214.525 375.288 214.757V218.35C375.288 218.582 375.493 218.771 375.746 218.771C375.999 218.771 376.204 218.582 376.204 218.35V214.757Z" fill="url(#paint4_linear)"/>
<path d="M392.235 214.799C392.235 214.567 392.03 214.379 391.777 214.379C391.524 214.379 391.319 214.567 391.319 214.799V218.392C391.319 218.624 391.524 218.813 391.777 218.813C392.03 218.813 392.235 218.624 392.235 218.392V214.799Z" fill="url(#paint5_linear)"/>
<path d="M376.059 214.614C376.059 214.461 375.924 214.337 375.757 214.337C375.591 214.337 375.455 214.461 375.455 214.614V218.494C375.455 218.647 375.591 218.771 375.757 218.771C375.924 218.771 376.059 218.647 376.059 218.494V214.614Z" fill="#2D70D7"/>
<path d="M392.089 214.614C392.089 214.461 391.954 214.337 391.787 214.337C391.621 214.337 391.485 214.461 391.485 214.614V218.494C391.485 218.647 391.621 218.771 391.787 218.771C391.954 218.771 392.089 218.647 392.089 218.494V214.614Z" fill="#2D70D7"/>
<path d="M225.687 207.685C225.687 207.379 225.417 207.131 225.083 207.131C224.75 207.131 224.48 207.379 224.48 207.685V213.505C224.48 213.811 224.75 214.059 225.083 214.059C225.417 214.059 225.687 213.811 225.687 213.505V207.685Z" fill="#2D70D7"/>
<path d="M241.113 207.685C241.113 207.379 240.843 207.131 240.51 207.131C240.176 207.131 239.906 207.379 239.906 207.685V213.228C239.906 213.534 240.176 213.782 240.51 213.782C240.843 213.782 241.113 213.534 241.113 213.228V207.685Z" fill="#2D70D7"/>
<path d="M241.992 206.463H223.635C223.002 206.463 222.49 206.933 222.49 207.514C222.49 208.095 223.002 208.565 223.635 208.565H241.992C242.624 208.565 243.137 208.095 243.137 207.514C243.137 206.933 242.624 206.463 241.992 206.463Z" fill="url(#paint6_linear)"/>
<path d="M242.017 208.65H223.66C223.028 208.65 222.515 209.12 222.515 209.701C222.515 210.282 223.028 210.752 223.66 210.752H242.017C242.65 210.752 243.162 210.282 243.162 209.701C243.162 209.12 242.65 208.65 242.017 208.65Z" fill="url(#paint7_linear)"/>
<path d="M242.043 210.837H223.686C223.053 210.837 222.54 211.307 222.54 211.888C222.54 212.469 223.053 212.939 223.686 212.939H242.043C242.675 212.939 243.188 212.469 243.188 211.888C243.188 211.307 242.675 210.837 242.043 210.837Z" fill="url(#paint8_linear)"/>
<path d="M242.019 206.577H223.608C223.108 206.577 222.702 206.949 222.702 207.408V207.408C222.702 207.867 223.108 208.24 223.608 208.24H242.019C242.519 208.24 242.924 207.867 242.924 207.408V207.408C242.924 206.949 242.519 206.577 242.019 206.577Z" fill="#CCCCCC"/>
<path d="M242.019 208.794H223.608C223.108 208.794 222.702 209.166 222.702 209.625C222.702 210.084 223.108 210.457 223.608 210.457H242.019C242.519 210.457 242.924 210.084 242.924 209.625C242.924 209.166 242.519 208.794 242.019 208.794Z" fill="#CCCCCC"/>
<path d="M242.019 211.011H223.608C223.108 211.011 222.702 211.383 222.702 211.842C222.702 212.302 223.108 212.674 223.608 212.674H242.019C242.519 212.674 242.924 212.302 242.924 211.842C242.924 211.383 242.519 211.011 242.019 211.011Z" fill="#CCCCCC"/>
<path d="M242.019 212.951H223.608C223.108 212.951 222.702 213.323 222.702 213.782C222.702 214.241 223.108 214.614 223.608 214.614H242.019C242.519 214.614 242.924 214.241 242.924 213.782C242.924 213.323 242.519 212.951 242.019 212.951Z" fill="#2D70D7"/>
<path d="M225.083 207.685C225.25 207.685 225.385 207.561 225.385 207.408C225.385 207.255 225.25 207.131 225.083 207.131C224.917 207.131 224.781 207.255 224.781 207.408C224.781 207.561 224.917 207.685 225.083 207.685Z" fill="#2D70D7"/>
<path d="M225.083 209.902C225.25 209.902 225.385 209.778 225.385 209.625C225.385 209.472 225.25 209.348 225.083 209.348C224.917 209.348 224.781 209.472 224.781 209.625C224.781 209.778 224.917 209.902 225.083 209.902Z" fill="#2D70D7"/>
<path d="M225.083 212.119C225.25 212.119 225.385 211.995 225.385 211.842C225.385 211.689 225.25 211.565 225.083 211.565C224.917 211.565 224.781 211.689 224.781 211.842C224.781 211.995 224.917 212.119 225.083 212.119Z" fill="#2D70D7"/>
<path d="M240.51 212.119C240.676 212.119 240.811 211.995 240.811 211.842C240.811 211.689 240.676 211.565 240.51 211.565C240.343 211.565 240.208 211.689 240.208 211.842C240.208 211.995 240.343 212.119 240.51 212.119Z" fill="#2D70D7"/>
<path d="M240.51 209.902C240.676 209.902 240.811 209.778 240.811 209.625C240.811 209.472 240.676 209.348 240.51 209.348C240.343 209.348 240.208 209.472 240.208 209.625C240.208 209.778 240.343 209.902 240.51 209.902Z" fill="#2D70D7"/>
<path d="M240.51 207.685C240.676 207.685 240.811 207.561 240.811 207.408C240.811 207.255 240.676 207.131 240.51 207.131C240.343 207.131 240.208 207.255 240.208 207.408C240.208 207.561 240.343 207.685 240.51 207.685Z" fill="#2D70D7"/>
<path d="M225.228 214.757C225.228 214.525 225.023 214.337 224.77 214.337C224.517 214.337 224.312 214.525 224.312 214.757V218.35C224.312 218.582 224.517 218.771 224.77 218.771C225.023 218.771 225.228 218.582 225.228 218.35V214.757Z" fill="url(#paint9_linear)"/>
<path d="M241.259 214.799C241.259 214.567 241.054 214.379 240.801 214.379C240.548 214.379 240.343 214.567 240.343 214.799V218.392C240.343 218.624 240.548 218.813 240.801 218.813C241.054 218.813 241.259 218.624 241.259 218.392V214.799Z" fill="url(#paint10_linear)"/>
<path d="M225.083 214.614C225.083 214.461 224.948 214.337 224.781 214.337C224.615 214.337 224.48 214.461 224.48 214.614V218.494C224.48 218.647 224.615 218.771 224.781 218.771C224.948 218.771 225.083 218.647 225.083 218.494V214.614Z" fill="#2D70D7"/>
<path d="M241.113 214.614C241.113 214.461 240.978 214.337 240.811 214.337C240.645 214.337 240.51 214.461 240.51 214.614V218.494C240.51 218.647 240.645 218.771 240.811 218.771C240.978 218.771 241.113 218.647 241.113 218.494V214.614Z" fill="#2D70D7"/>
<path d="M150.199 207.685C150.199 207.379 149.929 207.131 149.595 207.131C149.262 207.131 148.992 207.379 148.992 207.685V213.505C148.992 213.811 149.262 214.059 149.595 214.059C149.929 214.059 150.199 213.811 150.199 213.505V207.685Z" fill="#2D70D7"/>
<path d="M165.625 207.685C165.625 207.379 165.355 207.131 165.022 207.131C164.688 207.131 164.418 207.379 164.418 207.685V213.228C164.418 213.534 164.688 213.782 165.022 213.782C165.355 213.782 165.625 213.534 165.625 213.228V207.685Z" fill="#2D70D7"/>
<path d="M166.504 206.463H148.147C147.514 206.463 147.002 206.933 147.002 207.514C147.002 208.095 147.514 208.565 148.147 208.565H166.504C167.136 208.565 167.649 208.095 167.649 207.514C167.649 206.933 167.136 206.463 166.504 206.463Z" fill="url(#paint11_linear)"/>
<path d="M166.529 208.65H148.172C147.54 208.65 147.027 209.12 147.027 209.701C147.027 210.282 147.54 210.752 148.172 210.752H166.529C167.162 210.752 167.674 210.282 167.674 209.701C167.674 209.12 167.162 208.65 166.529 208.65Z" fill="url(#paint12_linear)"/>
<path d="M166.555 210.837H148.198C147.565 210.837 147.053 211.307 147.053 211.888C147.053 212.469 147.565 212.939 148.198 212.939H166.555C167.187 212.939 167.7 212.469 167.7 211.888C167.7 211.307 167.187 210.837 166.555 210.837Z" fill="url(#paint13_linear)"/>
<path d="M166.531 206.577H148.12C147.62 206.577 147.214 206.949 147.214 207.408V207.408C147.214 207.867 147.62 208.24 148.12 208.24H166.531C167.031 208.24 167.436 207.867 167.436 207.408V207.408C167.436 206.949 167.031 206.577 166.531 206.577Z" fill="#CCCCCC"/>
<path d="M166.531 208.794H148.12C147.62 208.794 147.214 209.166 147.214 209.625C147.214 210.084 147.62 210.457 148.12 210.457H166.531C167.031 210.457 167.436 210.084 167.436 209.625C167.436 209.166 167.031 208.794 166.531 208.794Z" fill="#CCCCCC"/>
<path d="M166.531 211.011H148.12C147.62 211.011 147.214 211.383 147.214 211.842C147.214 212.302 147.62 212.674 148.12 212.674H166.531C167.031 212.674 167.436 212.302 167.436 211.842C167.436 211.383 167.031 211.011 166.531 211.011Z" fill="#CCCCCC"/>
<path d="M166.531 212.951H148.12C147.62 212.951 147.214 213.323 147.214 213.782C147.214 214.241 147.62 214.614 148.12 214.614H166.531C167.031 214.614 167.436 214.241 167.436 213.782C167.436 213.323 167.031 212.951 166.531 212.951Z" fill="#2D70D7"/>
<path d="M149.595 207.685C149.762 207.685 149.897 207.561 149.897 207.408C149.897 207.255 149.762 207.131 149.595 207.131C149.429 207.131 149.294 207.255 149.294 207.408C149.294 207.561 149.429 207.685 149.595 207.685Z" fill="#2D70D7"/>
<path d="M149.595 209.902C149.762 209.902 149.897 209.778 149.897 209.625C149.897 209.472 149.762 209.348 149.595 209.348C149.429 209.348 149.294 209.472 149.294 209.625C149.294 209.778 149.429 209.902 149.595 209.902Z" fill="#2D70D7"/>
<path d="M149.595 212.119C149.762 212.119 149.897 211.995 149.897 211.842C149.897 211.689 149.762 211.565 149.595 211.565C149.429 211.565 149.294 211.689 149.294 211.842C149.294 211.995 149.429 212.119 149.595 212.119Z" fill="#2D70D7"/>
<path d="M165.022 212.119C165.188 212.119 165.324 211.995 165.324 211.842C165.324 211.689 165.188 211.565 165.022 211.565C164.855 211.565 164.72 211.689 164.72 211.842C164.72 211.995 164.855 212.119 165.022 212.119Z" fill="#2D70D7"/>
<path d="M165.022 209.902C165.188 209.902 165.324 209.778 165.324 209.625C165.324 209.472 165.188 209.348 165.022 209.348C164.855 209.348 164.72 209.472 164.72 209.625C164.72 209.778 164.855 209.902 165.022 209.902Z" fill="#2D70D7"/>
<path d="M165.022 207.685C165.188 207.685 165.324 207.561 165.324 207.408C165.324 207.255 165.188 207.131 165.022 207.131C164.855 207.131 164.72 207.255 164.72 207.408C164.72 207.561 164.855 207.685 165.022 207.685Z" fill="#2D70D7"/>
<path d="M149.74 214.757C149.74 214.525 149.535 214.337 149.282 214.337C149.029 214.337 148.824 214.525 148.824 214.757V218.35C148.824 218.582 149.029 218.771 149.282 218.771C149.535 218.771 149.74 218.582 149.74 218.35V214.757Z" fill="url(#paint14_linear)"/>
<path d="M165.771 214.799C165.771 214.567 165.566 214.379 165.313 214.379C165.06 214.379 164.855 214.567 164.855 214.799V218.392C164.855 218.624 165.06 218.813 165.313 218.813C165.566 218.813 165.771 218.624 165.771 218.392V214.799Z" fill="url(#paint15_linear)"/>
<path d="M149.595 214.614C149.595 214.461 149.46 214.337 149.294 214.337C149.127 214.337 148.992 214.461 148.992 214.614V218.494C148.992 218.647 149.127 218.771 149.294 218.771C149.46 218.771 149.595 218.647 149.595 218.494V214.614Z" fill="#2D70D7"/>
<path d="M165.625 214.614C165.625 214.461 165.49 214.337 165.324 214.337C165.157 214.337 165.022 214.461 165.022 214.614V218.494C165.022 218.647 165.157 218.771 165.324 218.771C165.49 218.771 165.625 218.647 165.625 218.494V214.614Z" fill="#2D70D7"/>
<path opacity="0.1" d="M293.826 89.497H291.965C292.004 89.3222 292 89.1416 291.953 88.9683C291.907 88.795 291.819 88.6333 291.696 88.4951C291.573 88.3569 291.418 88.2455 291.243 88.169C291.067 88.0925 290.875 88.0529 290.681 88.053H249.791C249.444 88.053 249.111 88.1798 248.865 88.4054C248.619 88.6311 248.481 88.9372 248.481 89.2563C248.481 89.5755 248.619 89.8816 248.865 90.1072C249.111 90.3329 249.444 90.4597 249.791 90.4597H251.653C251.614 90.6345 251.618 90.8151 251.664 90.9884C251.711 91.1617 251.799 91.3233 251.921 91.4616C252.044 91.5998 252.199 91.7112 252.375 91.7877C252.551 91.8642 252.742 91.9038 252.937 91.9037H246.122C245.774 91.9037 245.441 92.0305 245.195 92.2562C244.949 92.4818 244.811 92.7879 244.811 93.1071C244.811 93.4262 244.949 93.7323 245.195 93.958C245.441 94.1836 245.774 94.3104 246.122 94.3104H287.011C287.359 94.3104 287.692 94.1836 287.938 93.958C288.184 93.7323 288.322 93.4262 288.322 93.1071C288.322 92.7879 288.184 92.4818 287.938 92.2562C287.692 92.0305 287.359 91.9037 287.011 91.9037H293.826C294.174 91.9037 294.507 91.7769 294.753 91.5512C294.999 91.3256 295.137 91.0195 295.137 90.7004C295.137 90.3812 294.999 90.0751 294.753 89.8495C294.507 89.6238 294.174 89.497 293.826 89.497H293.826Z" fill="#2D70D7"/>
<path opacity="0.1" d="M501.942 70.2433H500.081C500.12 70.0685 500.116 69.8879 500.069 69.7146C500.023 69.5413 499.935 69.3797 499.812 69.2414C499.689 69.1032 499.534 68.9918 499.359 68.9153C499.183 68.8389 498.991 68.7992 498.797 68.7993H457.907C457.56 68.7993 457.227 68.9261 456.981 69.1518C456.735 69.3774 456.597 69.6835 456.597 70.0027C456.597 70.3218 456.735 70.6279 456.981 70.8536C457.227 71.0792 457.56 71.206 457.907 71.206H459.769C459.73 71.3809 459.734 71.5615 459.78 71.7347C459.827 71.908 459.915 72.0697 460.037 72.2079C460.16 72.3462 460.315 72.4575 460.491 72.534C460.666 72.6105 460.858 72.6501 461.053 72.65H454.238C453.89 72.65 453.557 72.7768 453.311 73.0025C453.065 73.2282 452.927 73.5342 452.927 73.8534C452.927 74.1725 453.065 74.4786 453.311 74.7043C453.557 74.9299 453.89 75.0567 454.238 75.0567H495.127C495.475 75.0567 495.808 74.9299 496.054 74.7043C496.3 74.4786 496.438 74.1725 496.438 73.8534C496.438 73.5342 496.3 73.2282 496.054 73.0025C495.808 72.7768 495.475 72.65 495.127 72.65H501.942C502.29 72.65 502.623 72.5233 502.869 72.2976C503.114 72.0719 503.253 71.7658 503.253 71.4467C503.253 71.1275 503.114 70.8215 502.869 70.5958C502.623 70.3701 502.29 70.2433 501.942 70.2433H501.942Z" fill="#2D70D7"/>
<path opacity="0.1" d="M407.582 128.486H405.721C405.76 128.311 405.756 128.13 405.709 127.957C405.663 127.783 405.575 127.622 405.452 127.484C405.329 127.345 405.174 127.234 404.999 127.158C404.823 127.081 404.631 127.041 404.437 127.042H363.548C363.2 127.042 362.867 127.168 362.621 127.394C362.375 127.62 362.237 127.926 362.237 128.245C362.237 128.564 362.375 128.87 362.621 129.096C362.867 129.321 363.2 129.448 363.548 129.448H365.409C365.37 129.623 365.374 129.804 365.42 129.977C365.467 130.15 365.555 130.312 365.678 130.45C365.8 130.588 365.955 130.7 366.131 130.776C366.307 130.853 366.499 130.892 366.693 130.892H359.878C359.53 130.892 359.197 131.019 358.951 131.245C358.706 131.47 358.568 131.776 358.568 132.096C358.568 132.415 358.706 132.721 358.951 132.946C359.197 133.172 359.53 133.299 359.878 133.299H400.767C401.115 133.299 401.448 133.172 401.694 132.946C401.94 132.721 402.078 132.415 402.078 132.096C402.078 131.776 401.94 131.47 401.694 131.245C401.448 131.019 401.115 130.892 400.767 130.892H407.582C407.93 130.892 408.263 130.765 408.509 130.54C408.755 130.314 408.893 130.008 408.893 129.689C408.893 129.37 408.755 129.064 408.509 128.838C408.263 128.612 407.93 128.486 407.582 128.486H407.582Z" fill="#2D70D7"/>
</g>
<defs>
<linearGradient id="paint0_linear" x1="173.755" y1="119.271" x2="173.755" y2="73.627" gradientUnits="userSpaceOnUse">
<stop stop-color="#808080" stop-opacity="0.25"/>
<stop offset="0.53514" stop-color="#808080" stop-opacity="0.12"/>
<stop offset="1" stop-color="#808080" stop-opacity="0.1"/>
</linearGradient>
<linearGradient id="paint1_linear" x1="15489.6" y1="1117.62" x2="15489.6" y2="1108.44" gradientUnits="userSpaceOnUse">
<stop stop-color="#808080" stop-opacity="0.25"/>
<stop offset="0.53514" stop-color="#808080" stop-opacity="0.12"/>
<stop offset="1" stop-color="#808080" stop-opacity="0.1"/>
</linearGradient>
<linearGradient id="paint2_linear" x1="15490.6" y1="1129.34" x2="15490.6" y2="1120.15" gradientUnits="userSpaceOnUse">
<stop stop-color="#808080" stop-opacity="0.25"/>
<stop offset="0.53514" stop-color="#808080" stop-opacity="0.12"/>
<stop offset="1" stop-color="#808080" stop-opacity="0.1"/>
</linearGradient>
<linearGradient id="paint3_linear" x1="15491.6" y1="1141.09" x2="15491.6" y2="1131.9" gradientUnits="userSpaceOnUse">
<stop stop-color="#808080" stop-opacity="0.25"/>
<stop offset="0.53514" stop-color="#808080" stop-opacity="0.12"/>
<stop offset="1" stop-color="#808080" stop-opacity="0.1"/>
</linearGradient>
<linearGradient id="paint4_linear" x1="1031.88" y1="2229.67" x2="1031.88" y2="2188.82" gradientUnits="userSpaceOnUse">
<stop stop-color="#808080" stop-opacity="0.25"/>
<stop offset="0.53514" stop-color="#808080" stop-opacity="0.12"/>
<stop offset="1" stop-color="#808080" stop-opacity="0.1"/>
</linearGradient>
<linearGradient id="paint5_linear" x1="1075.95" y1="2230.12" x2="1075.95" y2="2189.27" gradientUnits="userSpaceOnUse">
<stop stop-color="#808080" stop-opacity="0.25"/>
<stop offset="0.53514" stop-color="#808080" stop-opacity="0.12"/>
<stop offset="1" stop-color="#808080" stop-opacity="0.1"/>
</linearGradient>
<linearGradient id="paint6_linear" x1="9392.19" y1="1117.62" x2="9392.19" y2="1108.44" gradientUnits="userSpaceOnUse">
<stop stop-color="#808080" stop-opacity="0.25"/>
<stop offset="0.53514" stop-color="#808080" stop-opacity="0.12"/>
<stop offset="1" stop-color="#808080" stop-opacity="0.1"/>
</linearGradient>
<linearGradient id="paint7_linear" x1="9393.22" y1="1129.34" x2="9393.22" y2="1120.15" gradientUnits="userSpaceOnUse">
<stop stop-color="#808080" stop-opacity="0.25"/>
<stop offset="0.53514" stop-color="#808080" stop-opacity="0.12"/>
<stop offset="1" stop-color="#808080" stop-opacity="0.1"/>
</linearGradient>
<linearGradient id="paint8_linear" x1="9394.25" y1="1141.09" x2="9394.25" y2="1131.9" gradientUnits="userSpaceOnUse">
<stop stop-color="#808080" stop-opacity="0.25"/>
<stop offset="0.53514" stop-color="#808080" stop-opacity="0.12"/>
<stop offset="1" stop-color="#808080" stop-opacity="0.1"/>
</linearGradient>
<linearGradient id="paint9_linear" x1="617.084" y1="2229.67" x2="617.084" y2="2188.82" gradientUnits="userSpaceOnUse">
<stop stop-color="#808080" stop-opacity="0.25"/>
<stop offset="0.53514" stop-color="#808080" stop-opacity="0.12"/>
<stop offset="1" stop-color="#808080" stop-opacity="0.1"/>
</linearGradient>
<linearGradient id="paint10_linear" x1="661.128" y1="2230.12" x2="661.128" y2="2189.27" gradientUnits="userSpaceOnUse">
<stop stop-color="#808080" stop-opacity="0.25"/>
<stop offset="0.53514" stop-color="#808080" stop-opacity="0.12"/>
<stop offset="1" stop-color="#808080" stop-opacity="0.1"/>
</linearGradient>
<linearGradient id="paint11_linear" x1="6343.5" y1="1117.62" x2="6343.5" y2="1108.44" gradientUnits="userSpaceOnUse">
<stop stop-color="#808080" stop-opacity="0.25"/>
<stop offset="0.53514" stop-color="#808080" stop-opacity="0.12"/>
<stop offset="1" stop-color="#808080" stop-opacity="0.1"/>
</linearGradient>
<linearGradient id="paint12_linear" x1="6344.52" y1="1129.34" x2="6344.52" y2="1120.15" gradientUnits="userSpaceOnUse">
<stop stop-color="#808080" stop-opacity="0.25"/>
<stop offset="0.53514" stop-color="#808080" stop-opacity="0.12"/>
<stop offset="1" stop-color="#808080" stop-opacity="0.1"/>
</linearGradient>
<linearGradient id="paint13_linear" x1="6345.56" y1="1141.09" x2="6345.56" y2="1131.9" gradientUnits="userSpaceOnUse">
<stop stop-color="#808080" stop-opacity="0.25"/>
<stop offset="0.53514" stop-color="#808080" stop-opacity="0.12"/>
<stop offset="1" stop-color="#808080" stop-opacity="0.1"/>
</linearGradient>
<linearGradient id="paint14_linear" x1="409.69" y1="2229.67" x2="409.69" y2="2188.82" gradientUnits="userSpaceOnUse">
<stop stop-color="#808080" stop-opacity="0.25"/>
<stop offset="0.53514" stop-color="#808080" stop-opacity="0.12"/>
<stop offset="1" stop-color="#808080" stop-opacity="0.1"/>
</linearGradient>
<linearGradient id="paint15_linear" x1="453.73" y1="2230.12" x2="453.73" y2="2189.27" gradientUnits="userSpaceOnUse">
<stop stop-color="#808080" stop-opacity="0.25"/>
<stop offset="0.53514" stop-color="#808080" stop-opacity="0.12"/>
<stop offset="1" stop-color="#808080" stop-opacity="0.1"/>
</linearGradient>
<clipPath id="clip0">
<rect width="606" height="411" fill="white"/>
</clipPath>
</defs>
</svg>
