<svg width="50" height="50" viewBox="0 0 50 50" fill="none" xmlns="http://www.w3.org/2000/svg">
<path d="M48.5 25C48.5 37.9787 37.9787 48.5 25 48.5C12.0213 48.5 1.5 37.9787 1.5 25C1.5 12.0213 12.0213 1.5 25 1.5C37.9787 1.5 48.5 12.0213 48.5 25Z" fill="#E5EEFE" stroke="#E5E5E5" stroke-width="3"/>
<path d="M50 24.9999C50 24.6066 49.9897 24.2157 49.9718 23.8269L32.827 6.68213L31.2333 14.1941L34.7663 17.7271L31.2661 21.2273L19.6284 9.58955L18.1711 17.238L26.7133 25.7802L12.2402 40.2531L21.7813 49.7943C22.8352 49.9297 23.9094 50 25 50C38.8071 50 50 38.8071 50 24.9999Z" fill="#D0CDE1"/>
<path d="M10.3061 28.234C6.84102 35.164 11.8804 43.3177 19.6283 43.3177L24.2369 26.4535L19.6283 9.58948L10.3061 28.234Z" fill="#8DB6FF"/>
<path d="M25.6981 20.9399C23.0484 26.2395 26.902 32.4748 32.827 32.4748L36.3513 19.5784L32.827 6.68213L25.6981 20.9399Z" fill="#8DB6FF"/>
<path d="M39.956 20.94L32.8271 6.68213V32.4748C38.7521 32.4749 42.6058 26.2395 39.956 20.94Z" fill="#2D70D7"/>
<path d="M28.9506 28.2341L19.6283 9.5896V43.3178C27.3764 43.3178 32.4156 35.1641 28.9506 28.2341Z" fill="#2D70D7"/>
</svg>
